<svg width="24.000000" height="24.000000" viewBox="0 0 24 24" fill="none" xmlns="http://www.w3.org/2000/svg" xmlns:xlink="http://www.w3.org/1999/xlink">
	<desc>
			Created with Pixso.
	</desc>
	<defs>
		<clipPath id="clip46_1204">
			<rect id="accessibility-outline 1" width="24.000000" height="24.000000" fill="white" fill-opacity="0"/>
		</clipPath>
	</defs>
	<rect id="accessibility-outline 1" width="24.000000" height="24.000000" fill="#FFFFFF" fill-opacity="0"/>
	<g clip-path="url(#clip46_1204)">
		<path id="Vector" d="M12 4.5C10.96 4.5 10.12 3.66 10.12 2.62C10.12 1.58 10.96 0.75 12 0.75C13.03 0.75 13.87 1.58 13.87 2.62C13.87 3.66 13.03 4.5 12 4.5Z" stroke="#591567" stroke-opacity="1.000000" stroke-width="1.500000" stroke-linejoin="round"/>
		<path id="Vector" d="M9.54 10.63C9.36 10.14 8.95 9.87 8.46 9.68L4.12 8.28C3.56 8.09 3.03 7.78 2.99 7.16C2.95 6.36 3.65 5.85 4.35 6.03C4.35 6.03 8.48 7.49 11.99 7.49C15.51 7.49 19.59 6.04 19.59 6.04C20.43 5.81 20.99 6.46 20.99 7.16C20.99 7.82 20.48 8.06 19.87 8.28L15.74 9.77C15.37 9.91 14.76 10.2 14.53 10.63C14.24 11.13 14.29 12.01 14.43 12.86L14.7 14.25L16.46 21.93C16.59 22.54 16.16 23.12 15.55 23.23C14.93 23.34 14.43 22.92 14.25 22.32L12.49 16.89C12.41 16.63 12.33 16.36 12.27 16.1L11.99 15L11.75 16.01C11.67 16.33 11.58 16.65 11.47 16.97L9.74 22.32C9.56 22.92 9.07 23.34 8.45 23.23C7.84 23.12 7.4 22.5 7.54 21.93L9.29 14.25L9.57 12.86C9.7 12.01 9.77 11.19 9.54 10.63Z" stroke="#591567" stroke-opacity="1.000000" stroke-width="1.500000" stroke-linejoin="round"/>
	</g>
</svg>
