<svg width="24.000000" height="24.302368" viewBox="0 0 24 24.3024" fill="none" xmlns="http://www.w3.org/2000/svg" xmlns:xlink="http://www.w3.org/1999/xlink">
	<desc>
			Created with Pixso.
	</desc>
	<defs>
		<clipPath id="clip46_1212">
			<rect id="receipt-outline 1" width="24.000000" height="24.302368" fill="white" fill-opacity="0"/>
		</clipPath>
	</defs>
	<rect id="receipt-outline 1" width="24.000000" height="24.302368" fill="#FFFFFF" fill-opacity="0"/>
	<g clip-path="url(#clip46_1212)">
		<path id="Vector" d="M7.5 15.94L7.5 2.27L9 3.03L10.5 2.27L11.99 3.03L13.51 2.27L15 3.03L16.49 2.27L17.98 3.03L19.5 2.27L21 3.03L22.5 2.27L22.5 12.91" stroke="#591567" stroke-opacity="1.000000" stroke-width="1.518898" stroke-linejoin="round"/>
		<path id="Vector" d="M22.5 12.91L22.5 18.22C22.5 19.23 22.1 20.19 21.4 20.91C20.69 21.62 19.74 22.02 18.75 22.02C17.75 22.02 16.8 21.62 16.09 20.91C15.39 20.19 15 19.23 15 18.22L15 15.94L2.25 15.94C2.15 15.94 2.05 15.96 1.96 16C1.87 16.04 1.78 16.09 1.71 16.16C1.64 16.23 1.59 16.32 1.55 16.41C1.51 16.5 1.49 16.6 1.5 16.7C1.5 19.74 1.81 22.02 5.25 22.02L18.75 22.02" stroke="#591567" stroke-opacity="1.000000" stroke-width="1.518898" stroke-linejoin="round"/>
		<path id="Vector" d="M19.5 6.83L10.5 6.83L19.5 6.83ZM13.5 10.63L19.5 10.63" stroke="#591567" stroke-opacity="1.000000" stroke-width="1.518898" stroke-linejoin="round" stroke-linecap="round"/>
	</g>
</svg>
