<svg width="30.000000" height="30.000000" viewBox="0 0 30 30" fill="none" xmlns="http://www.w3.org/2000/svg" xmlns:xlink="http://www.w3.org/1999/xlink">
	<desc>
			Created with Pixso.
	</desc>
	<defs/>
	<path id="Vector" d="M6.71 30L0.49 30L0.49 9.97L6.71 9.97L6.71 30ZM3.6 7.23C1.61 7.23 0 5.59 0 3.6C0 1.61 1.61 0 3.6 0C5.59 0 7.2 1.61 7.2 3.6C7.2 5.59 5.59 7.23 3.6 7.23ZM29.99 30L23.78 30L23.78 20.25C23.78 17.92 23.74 14.94 20.55 14.94C17.31 14.94 16.82 17.47 16.82 20.08L16.82 30L10.61 30L10.61 9.97L16.57 9.97L16.57 12.7L16.66 12.7C17.49 11.12 19.52 9.46 22.54 9.46C28.84 9.46 30 13.61 30 18.99L30 30L29.99 30Z" fill="#857885" fill-opacity="1.000000" fill-rule="nonzero"/>
</svg>
