<svg width="30.000000" height="30.000000" viewBox="0 0 30 30" fill="none" xmlns="http://www.w3.org/2000/svg" xmlns:xlink="http://www.w3.org/1999/xlink">
	<desc>
			Created with Pixso.
	</desc>
	<defs/>
	<path id="Vector" d="M15 7.3C10.74 7.3 7.31 10.74 7.31 15C7.31 19.25 10.74 22.69 15 22.69C19.25 22.69 22.69 19.25 22.69 15C22.69 10.74 19.25 7.3 15 7.3ZM15 20C12.25 20 10 17.75 10 15C10 12.24 12.24 9.99 15 9.99C17.76 9.99 20 12.24 20 15C20 17.75 17.75 20 15 20ZM24.8 6.99C24.8 7.99 23.99 8.78 23 8.78C22.01 8.78 21.21 7.98 21.21 6.99C21.21 6 22.01 5.19 23 5.19C23.99 5.19 24.8 6 24.8 6.99ZM29.89 8.81C29.78 6.41 29.23 4.28 27.47 2.52C25.71 0.77 23.59 0.22 21.18 0.1C18.71 -0.04 11.28 -0.04 8.81 0.1C6.41 0.21 4.28 0.76 2.52 2.52C0.76 4.27 0.22 6.4 0.1 8.8C-0.04 11.28 -0.04 18.7 0.1 21.18C0.21 23.58 0.76 25.71 2.52 27.47C4.28 29.22 6.4 29.77 8.81 29.89C11.28 30.03 18.71 30.03 21.18 29.89C23.59 29.78 25.71 29.23 27.47 27.47C29.22 25.71 29.77 23.58 29.89 21.18C30.03 18.7 30.03 11.29 29.89 8.81ZM26.69 23.84C26.17 25.15 25.16 26.16 23.84 26.69C21.87 27.47 17.18 27.29 15 27.29C12.82 27.29 8.12 27.47 6.16 26.69C4.85 26.17 3.83 25.16 3.31 23.84C2.52 21.86 2.7 17.18 2.7 15C2.7 12.81 2.53 8.12 3.31 6.15C3.83 4.84 4.84 3.83 6.16 3.3C8.13 2.52 12.82 2.7 15 2.7C17.18 2.7 21.87 2.52 23.84 3.3C25.15 3.82 26.16 4.83 26.69 6.15C27.47 8.13 27.29 12.81 27.29 15C27.29 17.18 27.47 21.87 26.69 23.84Z" fill="#857885" fill-opacity="1.000000" fill-rule="nonzero"/>
</svg>
