<svg width="59.715179" height="28.075928" viewBox="0 0 59.7152 28.0759" fill="none" xmlns="http://www.w3.org/2000/svg" xmlns:xlink="http://www.w3.org/1999/xlink">
	<desc>
			Created with Pixso.
	</desc>
	<defs/>
	<path id="Vector" d="M59.71 14.03C59.71 21.79 46.34 28.07 29.85 28.07C13.36 28.07 0 21.79 0 14.03C0 6.28 13.36 0 29.85 0C46.34 0 59.71 6.28 59.71 14.03ZM48.99 7.46L43.87 7.46L43.24 9.25L46.56 9.25L42.78 10.57L42.53 11.3L48.35 9.38L48.99 7.46ZM16.34 10.61L14.25 10.61C14.25 10.61 16.19 5.43 16.34 5.03C16.62 4.34 16.78 4.39 16.78 4.39L13.9 4.39C14.26 4.56 13.94 5.24 13.94 5.24C13.94 5.24 11.63 11.7 11.47 12.02C11.31 12.34 11.19 12.38 11.19 12.38L16.18 12.38L16.88 10.47C16.82 10.65 16.34 10.61 16.34 10.61ZM25.09 12.38L27.44 12.38C27.44 12.38 27.28 12.14 27.38 11.87C27.52 11.51 28.77 8.1 28.77 8.1L29.31 12.38L31.44 12.38L34.23 4.77C34.23 4.77 34.34 4.41 34.5 4.41L32.24 4.4C32.24 4.4 32.3 4.67 32.22 4.87C32.14 5.07 30.85 8.52 30.85 8.52L30.35 4.4L27.92 4.4C27.92 4.4 28.05 4.6 27.97 4.83C27.9 5.01 25.39 11.93 25.39 11.93C25.39 11.93 25.23 12.38 25.09 12.38ZM35.84 4.41C35.84 4.41 36.04 4.73 35.77 5.48C35.51 6.22 33.47 11.77 33.47 11.77C33.47 11.77 33.3 12.3 33.08 12.4L36.3 12.39C36.3 12.39 40.19 12.54 41.4 8.42C41.4 8.42 42.92 4.36 38.51 4.41L35.84 4.41ZM36.18 10.56C36.18 10.56 36.19 10.55 36.55 10.55C37.09 10.55 38.11 10.43 38.79 8.77C39.9 6.03 38.34 6.12 38.34 6.12L37.74 6.12L36.18 10.56ZM7.6 18.82L12.72 18.82L13.34 17.03L10.03 17.03L13.81 15.71L14.06 14.99L8.24 16.9L7.6 18.82ZM16.57 22.13C16.49 22.13 16.49 21.87 16.49 21.87L17.44 19.35C17.44 19.35 18.61 21.67 18.69 21.83C18.77 21.99 18.73 22.13 18.73 22.13L21.54 22.13C21.27 22.13 20.99 21.62 20.99 21.62L19.59 19.09C21.55 19.09 22.17 17.15 22.17 17.15C23.14 14.05 19.89 14.13 19.89 14.13L16.57 14.13C16.82 14.4 16.63 14.97 16.63 14.97C16.63 14.97 14.57 20.89 14.41 21.35C14.25 21.81 13.95 22.13 13.95 22.13L16.57 22.13ZM18.56 15.97L18.02 17.58L18.53 17.58C18.53 17.58 19.52 17.67 19.89 16.87C19.89 16.87 20.31 15.97 19.12 15.97C18.86 15.97 18.56 15.97 18.56 15.97ZM45.62 22.16C45.42 22.16 45.56 21.67 45.56 21.67L46.4 19.38C46.4 19.38 47.53 21.7 47.61 21.86C47.69 22.02 47.65 22.16 47.65 22.16L50.56 22.16C50.29 22.16 49.99 21.65 49.99 21.65L48.6 19.12C50.55 19.12 51.14 17.25 51.14 17.25C52.17 14.01 48.9 14.16 48.9 14.16L45.6 14.16C45.85 14.43 45.66 15 45.66 15C45.66 15 43.51 20.94 43.35 21.4C43.19 21.86 42.88 22.15 42.88 22.15L45.62 22.16ZM47.53 17.61C47.53 17.61 48.52 17.68 48.82 16.91C49.17 16 48.29 16.02 48.29 16.02L47.56 16.02L47.02 17.61L47.53 17.61ZM25.65 22.33C28.54 22.33 30.27 19.47 30.27 17.42C30.27 15.27 29.39 13.93 27.38 13.93C24.82 13.93 23.15 15.88 22.72 18.31C22.32 20.54 23.58 22.33 25.65 22.33ZM25.83 20.44C26.55 20.57 27.35 20.05 27.76 18.38C28.39 15.85 27.23 15.83 27.02 15.8C26.38 15.72 25.52 16.47 25.17 18.01C25.01 18.72 24.85 20.25 25.83 20.44ZM30.96 14.16C30.96 14.16 31.15 14.27 31.15 14.78L31.15 21.7C31.15 21.7 31.13 22.08 30.98 22.16L33.14 22.16C33.14 22.16 33.14 21.99 33.35 21.73C33.57 21.46 38.04 15.43 38.04 15.43C38.04 15.43 39.06 14.16 39.32 14.16L36.24 14.16C36.24 14.16 36.48 14.32 36.3 14.62C36.11 14.92 33.37 19.03 33.37 19.03L33.4 14.88C33.4 14.88 33.4 14.21 33.67 14.16L30.96 14.16ZM43.97 16.05L44.67 14.16L39.45 14.16C39.45 14.16 39.63 14.33 39.39 15C39.15 15.67 37.04 21.4 37.04 21.4C37.04 21.4 36.66 22.16 36.56 22.16L41.94 22.16L42.58 20.25C42.58 20.25 42.5 20.36 41.99 20.36L39.71 20.36L40.2 19.06L41.96 19.06C41.96 19.06 42.34 19.04 42.42 19.14L43.14 17.1C43.14 17.1 43.09 17.29 42.61 17.29L40.89 17.29L41.4 15.86L43.57 15.86C43.57 15.86 43.86 15.82 43.97 16.05ZM16.75 12.38L19.33 12.38C19.33 12.38 19.32 12.18 19.39 12.05C19.51 11.82 19.83 11.26 19.83 11.26L22.42 11.26L22.43 11.96C22.43 11.96 22.44 12.2 22.25 12.39L24.82 12.39C24.82 12.39 24.63 12.28 24.59 11.96L24.27 4.94C24.27 4.94 24.26 4.49 24.47 4.39L21.92 4.39C21.92 4.39 22.1 4.62 21.76 5.12C21.42 5.63 17.06 12.12 17.06 12.12C17.06 12.12 16.97 12.29 16.75 12.38ZM22.37 7.11L20.94 9.45L22.39 9.45L22.37 7.11Z" fill="#414B47" fill-opacity="1.000000" fill-rule="evenodd"/>
</svg>
