<svg width="81.257355" height="28.217407" viewBox="0 0 81.2574 28.2174" fill="none" xmlns="http://www.w3.org/2000/svg" xmlns:xlink="http://www.w3.org/1999/xlink">
	<desc>
			Created with Pixso.
	</desc>
	<defs/>
	<path id="Vector" d="M26.65 6.71L23.54 14.26L24.85 6.71L21.44 6.71L19.28 22.75L22.95 22.75L30.15 6.71L26.65 6.71ZM31.62 15.98L34.57 15.98L35.43 13.13L32.47 13.13L33.54 9.6L36.56 9.6L37.44 6.71L30.99 6.71L26.16 22.75L32.5 22.75L33.63 19.71L30.49 19.71L31.62 15.98ZM12.35 26.03C10.58 26.03 8.91 25.59 7.46 24.82L6.59 26.58C8.31 27.48 10.27 27.99 12.35 27.99C16.29 27.99 19.8 26.17 22.06 23.33L19.37 23.33C17.53 25.01 15.06 26.03 12.35 26.03ZM14.54 19.95L14.54 21.61L18.71 18.48L14.67 14.77L14.67 16.38L10.37 16.38L14.67 6.39L14.67 13.75L18.16 16.97L18.25 0L14.43 0L0.5 28.12L5.12 28.21L8.86 19.95L14.54 19.95ZM3.34 20.86C2.47 19.36 1.97 17.62 1.97 15.77C1.97 10.61 5.82 6.34 10.84 5.61L11.86 3.56C5.26 3.82 0 9.18 0 15.77C0 18.41 0.84 20.86 2.29 22.86L3.34 20.86ZM18.15 22.75L18.15 19.72L14.53 22.75L18.15 22.75ZM69.59 15.14C70.42 15.14 70.9 14.65 71.03 14.19L72.68 8.74C73 7.69 72.52 6.71 71.05 6.71L64.85 6.71L60.02 22.75L63.43 22.75L65.48 15.91L66.61 15.91C67.02 15.91 67.06 16.2 66.97 16.46L65.08 22.75L68.48 22.75L70.24 16.9C70.6 15.76 70.11 15.23 69.59 15.14ZM69.05 9.96L68.14 12.93C67.99 13.42 67.69 13.55 67.35 13.55L66.18 13.55L67.47 9.3L68.53 9.3C69.05 9.3 69.18 9.54 69.05 9.96ZM43.39 6.71L41.52 12.91L41.41 6.71L38.5 6.71L33.67 22.75L36.87 22.75L38.84 16.35L39.13 22.75L41.86 22.75L46.69 6.71L43.39 6.71ZM77.39 9.6L80.37 9.6L81.25 6.71L76 6.71C75.18 6.71 74.37 6.94 73.99 8.06L72.11 14.28C71.78 15.45 72.11 16.22 73.54 16.22L75.34 16.22C75.54 16.22 75.54 16.31 75.5 16.44L74.71 19.15C74.57 19.55 74.48 19.71 73.85 19.71L71.01 19.71L70.08 22.75L75.66 22.75C76.36 22.75 77.1 22.42 77.28 21.78L79.15 15.56C79.63 13.99 78.86 13.33 77.64 13.33L75.82 13.33L76.79 10.07C76.9 9.71 77.15 9.6 77.39 9.6ZM50.39 13.13L49.53 15.98L50.23 15.98L48.99 20.08L47.84 20.08C47.39 20.08 47.18 19.9 47.32 19.44L50.14 10.09C50.25 9.69 50.43 9.6 50.79 9.6L54.11 9.6L54.99 6.71L49.55 6.71C48.47 6.71 47.73 7.02 47.37 8.21L43.89 19.77C43.26 21.89 44.54 22.75 46.08 22.75L48.18 22.75L47.82 24.01L51.61 22.13L54.31 13.13L50.39 13.13L50.39 13.13ZM57.97 15.98L60.92 15.98L61.78 13.13L58.83 13.13L59.89 9.6L62.91 9.6L63.79 6.71L57.34 6.71L52.51 22.75L58.85 22.75L59.98 19.71L56.84 19.71L57.97 15.98Z" fill="#000000" fill-opacity="1.000000" fill-rule="nonzero"/>
</svg>
