<svg width="32.563553" height="31.414185" viewBox="0 0 32.5636 31.4142" fill="none" xmlns="http://www.w3.org/2000/svg" xmlns:xlink="http://www.w3.org/1999/xlink">
	<desc>
			Created with Pixso.
	</desc>
	<defs/>
	<path id="Vector" d="M0 3.64C0 2.59 0.36 1.71 1.1 1.03C1.83 0.34 2.78 0 3.96 0C5.11 0 6.04 0.33 6.75 1.01C7.49 1.71 7.85 2.62 7.85 3.74C7.85 4.75 7.5 5.6 6.78 6.28C6.05 6.98 5.09 7.32 3.89 7.32L3.86 7.32C2.71 7.32 1.78 6.98 1.06 6.28C0.35 5.58 0 4.7 0 3.64ZM0.4 31.41L0.4 10.21L7.38 10.21L7.38 31.41L0.4 31.41ZM11.25 31.41L18.23 31.41L18.23 19.57C18.23 18.83 18.31 18.26 18.48 17.86C18.77 17.14 19.22 16.53 19.81 16.04C20.41 15.54 21.16 15.29 22.06 15.29C24.41 15.29 25.58 16.89 25.58 20.08L25.58 31.41L32.56 31.41L32.56 19.26C32.56 16.13 31.83 13.75 30.36 12.13C28.89 10.51 26.95 9.7 24.54 9.7C21.84 9.7 19.73 10.88 18.23 13.23L18.23 13.29L18.19 13.29L18.23 13.23L18.23 10.21L11.25 10.21C11.29 10.89 11.31 12.99 11.31 16.53C11.31 20.06 11.29 25.02 11.25 31.41Z" fill="#000000" fill-opacity="1.000000" fill-rule="nonzero"/>
</svg>
