<svg width="65.271431" height="30.955078" viewBox="0 0 65.2714 30.9551" fill="none" xmlns="http://www.w3.org/2000/svg" xmlns:xlink="http://www.w3.org/1999/xlink">
	<desc>
			Created with Pixso.
	</desc>
	<defs/>
	<path id="Vector" d="M6.99 11.17L6.99 2.43C6.99 2.1 7.03 1.91 7.58 1.91L15 1.91C16.3 1.91 17.01 3.01 17.53 5.08L17.95 6.74L19.21 6.74C19.44 2.04 19.63 0 19.63 0C19.63 0 16.46 0.35 14.58 0.35L5.08 0.35L0 0.19L0 1.55L1.71 1.87C2.91 2.1 3.2 2.36 3.3 3.46C3.3 3.46 3.4 6.7 3.4 12.05C3.4 17.4 3.3 20.61 3.3 20.61C3.3 21.58 2.91 21.93 1.71 22.16L0 22.49L0 23.85L5.08 23.68L13.57 23.68C15.49 23.68 19.93 23.85 19.93 23.85C20.02 22.68 20.67 17.4 20.77 16.81L19.57 16.81L18.3 19.7C17.3 21.97 15.84 22.13 14.22 22.13L9.39 22.13C7.77 22.13 6.99 21.48 6.99 20.09L6.99 12.7C6.99 12.7 10.53 12.7 11.76 12.8C12.67 12.86 13.22 13.12 13.51 14.38L13.9 16.07L15.29 16.07L15.19 11.82L15.39 7.55L13.99 7.55L13.54 9.43C13.25 10.66 13.05 10.88 11.79 11.01C10.37 11.18 6.99 11.14 6.99 11.14L6.99 11.18L6.99 11.18L6.99 11.17ZM26.21 3.33C25.76 5.34 25.3 6.9 23.72 7.93C22.74 8.58 21.77 8.81 21.38 8.84L21.38 10.07L24.27 10.07L24.27 20.02C24.27 22.81 26.11 24.17 28.58 24.17C30.49 24.17 32.47 23.36 33.15 21.67L32.47 20.8C32.14 21.35 31.1 22.16 29.81 22.16C28.38 22.16 27.61 21.19 27.61 18.73L27.61 9.94L32.4 10.3L32.66 8.1L27.61 8.29L27.61 3.36L26.21 3.33ZM36.45 18.63L35.22 18.67C35.29 19.38 35.32 20.29 35.32 21.13C35.32 22.01 35.29 22.82 35.22 23.2C35.22 23.2 37.68 24.11 40.18 24.11C43.55 24.11 46.24 22.49 46.24 19.31C46.24 13.87 38.07 14.68 38.07 11.02C38.07 9.5 39.43 8.91 40.92 8.91C42.09 8.91 43.06 9.33 43.26 9.95L44.07 12.38L45.27 12.32C45.36 11.02 45.43 9.53 45.62 8.33C44.59 7.88 42.41 7.62 41.05 7.62C37.88 7.62 35.32 9.01 35.32 12.12C35.32 17.53 43.29 16.43 43.29 20.42C43.29 21.84 42.41 22.85 40.44 22.85C38.62 22.85 37.72 21.91 37.36 20.97L36.45 18.63ZM55.98 22.38C54.11 27.62 51.81 28.98 49.74 28.98C48.87 28.98 48.45 28.59 48.32 27.97L47.83 25.45L46.47 25.52C46.21 27 45.96 28.65 45.6 30.01C46.41 30.63 47.77 30.95 48.83 30.95C51.07 30.95 54.46 30.66 57.57 23.28L62.78 10.99C63.2 9.99 63.36 9.89 64.59 9.41L65.27 9.15L65.27 8.02L62.19 8.18L58.89 8.02L58.89 9.15L59.73 9.41C60.58 9.67 60.96 9.99 60.96 10.57C60.96 10.86 60.87 11.15 60.7 11.61C60.22 12.84 57.21 20.15 56.4 21.7L57.21 21.41C55.79 17.88 53.62 11.99 53.3 10.99C53.23 10.8 53.2 10.64 53.2 10.47C53.2 9.96 53.56 9.54 54.33 9.37L55.4 9.15L55.4 8.02L50.97 8.18L47.44 8.02L47.44 9.15L48.03 9.34C48.83 9.6 49.03 9.83 49.51 10.96C52.2 17.11 53.46 20.47 55.17 24.87L55.98 22.38Z" fill="#999999" fill-opacity="1.000000" fill-rule="nonzero"/>
</svg>
