<svg width="198.000000" height="49.000000" viewBox="0 0 198 49" fill="none" xmlns="http://www.w3.org/2000/svg" xmlns:xlink="http://www.w3.org/1999/xlink">
	<desc>
			Created with Pixso.
	</desc>
	<defs>
		<clipPath id="clip19_158">
			<rect id="Logo" width="198.000000" height="49.000000" fill="white" fill-opacity="0"/>
		</clipPath>
	</defs>
	<rect id="Logo" width="198.000000" height="49.000000" fill="#FFFFFF" fill-opacity="0"/>
	<g clip-path="url(#clip19_158)">
		<path id="Vector" d="M37.62 27.1C38.29 26.17 38.65 25.05 38.65 23.9C38.65 22.73 38.28 21.59 37.59 20.64C36.9 19.69 35.92 18.99 34.81 18.62C34.6 18.57 34.4 18.52 34.19 18.46C32.16 17.85 30.37 16.63 29.07 14.97C27.76 13.31 27 11.28 26.9 9.18C26.89 8.9 26.89 8.62 26.9 8.34C26.82 7.34 26.47 6.38 25.88 5.57C25.3 4.76 24.51 4.11 23.59 3.71C22.67 3.31 21.66 3.16 20.66 3.28C19.66 3.41 18.72 3.79 17.92 4.41C17.13 5.02 16.52 5.83 16.15 6.76C15.78 7.69 15.68 8.71 15.84 9.69C16 10.68 16.43 11.6 17.08 12.37C17.73 13.13 18.57 13.71 19.52 14.03C19.78 14.09 20.04 14.16 20.29 14.24C22.31 14.86 24.09 16.09 25.38 17.75C26.67 19.41 27.42 21.44 27.51 23.54C27.52 23.8 27.52 24.05 27.51 24.31C27.44 26.45 26.7 28.51 25.39 30.21C24.08 31.9 22.27 33.14 20.21 33.76C19.99 33.82 19.78 33.88 19.56 33.93C18.61 34.24 17.76 34.8 17.1 35.56C16.45 36.31 16 37.22 15.82 38.2C15.64 39.18 15.73 40.19 16.08 41.13C16.43 42.06 17.03 42.88 17.8 43.51C18.58 44.14 19.52 44.54 20.51 44.69C21.5 44.83 22.51 44.7 23.44 44.32C24.36 43.94 25.17 43.32 25.77 42.53C26.37 41.73 26.75 40.79 26.85 39.8C26.83 39.38 26.82 38.95 26.85 38.53C26.96 36.46 27.72 34.47 29 32.83C30.29 31.19 32.05 29.98 34.04 29.36C34.33 29.27 34.62 29.19 34.92 29.13C36.01 28.75 36.95 28.04 37.62 27.1ZM1.55 34.89C0.82 35.79 0.39 36.88 0.32 38.03C0.24 39.19 0.54 40.35 1.17 41.34C1.8 42.33 2.72 43.09 3.81 43.53C4.01 43.59 4.21 43.66 4.41 43.73C5.18 43.94 5.99 43.98 6.78 43.86C7.56 43.73 8.31 43.43 8.98 42.99C9.64 42.55 10.2 41.98 10.63 41.3C11.05 40.63 11.32 39.87 11.42 39.08C11.42 38.83 11.44 38.58 11.46 38.33C11.67 36.2 12.54 34.19 13.95 32.58C15.37 30.97 17.26 29.85 19.35 29.36C19.57 29.31 19.8 29.26 20.03 29.23C20.99 28.98 21.88 28.47 22.58 27.76C23.28 27.05 23.78 26.17 24.02 25.2C24.26 24.23 24.24 23.22 23.95 22.27C23.66 21.31 23.12 20.45 22.38 19.78C21.65 19.11 20.74 18.64 19.76 18.44C18.78 18.23 17.76 18.29 16.82 18.61C15.87 18.93 15.02 19.5 14.37 20.26C13.72 21.01 13.29 21.93 13.12 22.91C13.12 25.21 12.35 27.44 10.93 29.25C9.51 31.05 7.51 32.33 5.27 32.87C4.97 32.94 4.68 33 4.37 33.04C3.26 33.36 2.28 34 1.55 34.89Z" fill="#FFFFFF" fill-opacity="1.000000" fill-rule="evenodd"/>
		<path id="blinqpay" d="M54.08 17.24L54.08 10.64L49.95 10.64L49.95 38L53.04 38L53.8 35.62L54.1 35.62Q54.87 36.71 56.23 37.53Q57.59 38.35 59.81 38.35Q61.8 38.35 63.35 37.53Q63.64 37.38 63.91 37.2Q64.01 37.13 64.11 37.06Q65.72 35.92 66.63 33.79Q67.6 31.54 67.6 28.24Q67.6 23.26 65.49 20.72Q64.57 19.62 63.4 19Q61.87 18.18 59.91 18.18Q57.7 18.18 56.29 19.05Q54.89 19.91 54.1 21.16Q54.09 21.17 54.08 21.19L53.9 21.19Q53.96 20.58 54.02 19.48Q54.08 18.38 54.08 17.24ZM72.36 38L76.51 38L76.51 10.64L72.36 10.64L72.36 38ZM85.76 11.37Q85.2 11.08 84.49 11.08Q83.65 11.08 83.03 11.45Q82.93 11.52 82.83 11.59Q82.77 11.63 82.72 11.68Q82.15 12.2 82.15 13.35Q82.15 14.47 82.71 15Q82.77 15.05 82.83 15.1Q82.94 15.19 83.06 15.26Q83.67 15.62 84.49 15.62Q85.18 15.62 85.73 15.35Q85.94 15.24 86.13 15.1Q86.21 15.04 86.28 14.97Q86.83 14.44 86.83 13.35Q86.83 12.23 86.27 11.71Q86.2 11.65 86.13 11.59Q85.96 11.46 85.76 11.37ZM107.54 19.72Q105.72 18.17 102.58 18.17Q101.31 18.17 100.14 18.5Q98.97 18.83 98.03 19.49Q97.82 19.65 97.62 19.82Q96.95 20.39 96.46 21.17L96.23 21.17L95.65 18.54L92.43 18.54L92.43 38L96.57 38L96.57 28.33Q96.57 25.02 97.66 23.28Q97.87 22.96 98.14 22.69Q99.29 21.54 101.59 21.54Q103.26 21.54 104.19 22.37Q104.34 22.51 104.48 22.68Q105.41 23.81 105.41 26.08L105.41 38L109.54 38L109.54 25.3Q109.54 21.56 107.7 19.86Q107.62 19.79 107.54 19.72ZM127.66 38.36L127.66 46.63L131.81 46.63L131.81 18.54L128.38 18.54L127.93 21.17L127.78 21.17Q127.72 21.08 127.66 20.99Q126.84 19.84 125.54 19.04Q124.15 18.17 121.91 18.17Q120.07 18.17 118.59 18.9Q118.21 19.09 117.84 19.33Q117.74 19.39 117.65 19.46Q116.04 20.62 115.13 22.74Q114.16 24.99 114.16 28.29Q114.16 33.27 116.25 35.81Q117.18 36.93 118.37 37.56Q119.87 38.35 121.77 38.35Q124.04 38.35 125.45 37.48Q126.74 36.68 127.52 35.52Q127.58 35.42 127.64 35.32L127.85 35.32Q127.75 36.01 127.71 36.83Q127.66 37.66 127.66 38.36ZM151.21 18.99Q149.68 18.17 147.7 18.17Q146.21 18.17 145.09 18.58Q143.97 18.99 143.19 19.7Q142.41 20.4 141.86 21.23L141.67 21.23L141.09 18.54L137.72 18.54L137.72 46.63L141.86 46.63L141.86 38.7Q141.86 38 141.78 37.14Q141.71 36.29 141.62 35.59L141.86 35.59Q142.39 36.33 143.17 36.95Q143.94 37.57 145.03 37.96Q146.12 38.35 147.6 38.35Q149.46 38.35 150.95 37.61Q151.32 37.42 151.66 37.2Q151.74 37.15 151.81 37.1Q153.46 35.95 154.39 33.79Q155.36 31.53 155.36 28.22Q155.36 23.23 153.26 20.7Q152.36 19.61 151.21 18.99ZM173.34 19.8Q171.45 18.17 167.76 18.17Q165.79 18.17 163.97 18.64Q162.15 19.12 160.73 19.87L162.06 22.79Q162.91 22.39 163.78 22.07Q164.25 21.9 164.73 21.75Q165.16 21.62 165.59 21.53Q166.56 21.33 167.56 21.33Q169.24 21.33 170.18 22.16Q170.19 22.18 170.21 22.19Q171.15 23.05 171.15 25.08L171.15 26.09L167.77 26.22Q163.24 26.38 161 27.89Q160.14 28.46 159.62 29.26Q158.76 30.54 158.76 32.41Q158.76 34.43 159.55 35.75Q159.98 36.46 160.58 36.98Q161.09 37.41 161.71 37.71Q163.08 38.35 164.82 38.35Q166.47 38.35 167.63 38Q168.78 37.66 169.66 36.98Q170.53 36.29 171.36 35.24L171.5 35.24L172.29 38L175.23 38L175.23 24.9Q175.23 21.73 173.64 20.09Q173.5 19.94 173.34 19.8ZM86.53 38L86.53 18.54L82.4 18.54L82.4 38L86.53 38ZM182.58 18.54L178.08 18.54L185.85 37.94L185.16 39.77Q184.79 40.79 184.23 41.59Q183.79 42.22 183.19 42.63Q183.03 42.74 182.86 42.83Q182.05 43.27 180.94 43.27Q180.34 43.27 179.78 43.2Q179.22 43.13 178.85 43.04L178.85 46.34Q179.31 46.45 179.96 46.55Q180.61 46.64 181.49 46.64Q183.31 46.64 184.74 45.95Q184.96 45.84 185.16 45.72Q186.32 45.05 187.21 43.91Q188.25 42.57 188.97 40.67L197.32 18.54L192.88 18.54L189.04 29.65Q188.64 30.79 188.31 31.92Q187.99 33.06 187.81 33.97L187.71 33.97Q187.6 33.27 187.44 32.56Q187.27 31.86 187.05 31.13Q186.83 30.4 186.57 29.65L182.58 18.54ZM56.04 22.25Q57.07 21.54 58.83 21.54Q60.16 21.54 61.1 22.14Q61.73 22.55 62.19 23.21Q63.34 24.88 63.34 28.19Q63.34 31.46 62.18 33.21Q61.64 34.02 60.88 34.46Q60.01 34.95 58.86 34.95Q56.71 34.95 55.61 33.88Q55.32 33.59 55.11 33.23Q54.08 31.51 54.08 28.26L54.08 27.89Q54.1 25.74 54.55 24.35Q54.95 23.12 55.8 22.43Q55.91 22.33 56.04 22.25ZM143.86 22.22Q144.89 21.54 146.59 21.54Q148.01 21.54 148.98 22.2Q149.58 22.61 150.01 23.28Q151.13 25.02 151.13 28.17Q151.13 30.24 150.64 31.77Q150.14 33.3 149.15 34.13Q148.98 34.27 148.78 34.39Q147.89 34.95 146.64 34.95Q144.85 34.95 143.81 34.17Q143.73 34.12 143.66 34.06Q142.73 33.28 142.31 31.89Q141.86 30.38 141.86 28.22L141.86 27.64Q141.9 25.6 142.37 24.25Q142.76 23.11 143.55 22.45Q143.7 22.32 143.86 22.22ZM125.82 34.36Q124.76 35.02 123 35.02Q121.5 35.02 120.5 34.32Q119.94 33.92 119.53 33.31Q118.4 31.6 118.4 28.36Q118.4 25.16 119.52 23.36Q119.98 22.63 120.64 22.19Q121.59 21.56 122.97 21.56Q125.15 21.56 126.27 22.65Q126.56 22.93 126.78 23.28Q127.85 25 127.85 28.31L127.85 28.94Q127.82 30.96 127.35 32.33Q126.96 33.44 126.18 34.09Q126.01 34.24 125.82 34.36ZM168.62 28.78L171.13 28.7L171.13 30.38Q171.13 32.33 170.18 33.5Q169.97 33.76 169.72 33.98Q169.4 34.26 169.04 34.47Q167.81 35.2 166.16 35.2Q164.75 35.2 163.89 34.54Q163.75 34.43 163.63 34.3Q163.03 33.64 163.03 32.44Q163.03 31.5 163.43 30.79Q163.74 30.25 164.28 29.84Q165.52 28.89 168.62 28.78Z" fill="#FFFFFF" fill-opacity="1.000000" fill-rule="evenodd"/>
	</g>
</svg>
