<svg width="30.000000" height="25.000000" viewBox="0 0 30 25" fill="none" xmlns="http://www.w3.org/2000/svg" xmlns:xlink="http://www.w3.org/1999/xlink">
	<desc>
			Created with Pixso.
	</desc>
	<defs/>
	<path id="Vector" d="M26.91 6.23C26.93 6.5 26.93 6.77 26.93 7.05C26.93 15.39 20.74 25 9.44 25C5.95 25 2.72 23.96 0 22.16C0.49 22.22 0.97 22.24 1.48 22.24C4.35 22.24 7 21.25 9.11 19.55C6.41 19.49 4.14 17.67 3.36 15.17C3.75 15.23 4.13 15.27 4.53 15.27C5.08 15.27 5.63 15.19 6.14 15.05C3.33 14.47 1.21 11.93 1.21 8.86L1.21 8.78C2.03 9.25 2.98 9.55 3.99 9.58C2.34 8.45 1.25 6.52 1.25 4.33C1.25 3.16 1.56 2.08 2.09 1.15C5.12 4.98 9.67 7.48 14.77 7.75C14.67 7.28 14.61 6.79 14.61 6.3C14.61 2.83 17.36 0 20.76 0C22.53 0 24.13 0.76 25.26 1.99C26.64 1.71 27.98 1.19 29.16 0.46C28.7 1.93 27.73 3.16 26.45 3.94C27.69 3.8 28.89 3.45 30 2.96C29.16 4.21 28.11 5.33 26.91 6.23Z" fill="#857885" fill-opacity="1.000000" fill-rule="nonzero"/>
</svg>
