<svg width="86.004227" height="87.605469" viewBox="0 0 86.0042 87.6055" fill="none" xmlns="http://www.w3.org/2000/svg" xmlns:xlink="http://www.w3.org/1999/xlink">
	<desc>
			Created with Pixso.
	</desc>
	<defs/>
	<path id="Subtract" d="M82.94 70.27C89.4 39.79 84.14 19.68 80.77 13.52L80.76 13.5L80.75 13.47C79.38 10.21 76.22 5.69 71.23 2.8C66.53 0.09 60.18 -1.19 52.08 1.42L52.08 1.43C22.56 11.41 7.94 26.18 4.35 32.21L4.34 32.24L4.32 32.26C2.21 35.1 -0.07 40.12 0 45.89C0.06 51.32 2.2 57.46 8.6 63.1L8.6 63.1C32.22 82.9 52.33 87.62 59.33 87.53L59.36 87.53L59.38 87.53C62.9 87.84 68.36 87.17 73.27 84.13C77.44 81.55 81.23 77.24 83.08 70.31L82.94 70.27Z" fill="#FFFFFF" fill-opacity="1.000000" fill-rule="nonzero"/>
</svg>
